<mxfile host="app.diagrams.net" modified="2024-04-15T10:43:47.620Z" agent="Mozilla/5.0 (Windows NT 10.0; Win64; x64) AppleWebKit/537.36 (KHTML, like Gecko) Chrome/123.0.0.0 Safari/537.36" version="24.2.5" etag="QmHjI9jd8X09yiT73pwZ" type="github">
  <diagram name="Pagina-1" id="igMjkYRbRRR0uubLidjD">
    <mxGraphModel>
      <root>
        <mxCell id="0" />
        <mxCell id="1" parent="0" />
      </root>
    </mxGraphModel>
  </diagram>
</mxfile>
